<?xml version="1.0" encoding="utf-8"?>
<!-- Generator: Adobe Illustrator 25.2.1, SVG Export Plug-In . SVG Version: 6.00 Build 0)  -->
<svg version="1.1" id="Layer_1" xmlns="http://www.w3.org/2000/svg" xmlns:xlink="http://www.w3.org/1999/xlink" x="0px" y="0px"
	 viewBox="0 0 174 28.9" style="enable-background:new 0 0 174 28.9;" xml:space="preserve">
<polygon points="15.2,0 19.9,9.5 30.4,11 22.8,18.4 24.6,28.9 15.2,23.9 5.8,28.9 7.6,18.4 0,11 10.5,9.5 "/>
<polygon points="51.1,0 55.8,9.5 66.3,11 58.7,18.4 60.5,28.9 51.1,23.9 41.7,28.9 43.5,18.4 35.9,11 46.4,9.5 "/>
<polygon points="87,0 91.7,9.5 102.2,11 94.6,18.4 96.4,28.9 87,23.9 77.6,28.9 79.4,18.4 71.8,11 82.3,9.5 "/>
<polygon points="122.9,0 127.6,9.5 138.1,11 130.5,18.4 132.3,28.9 122.9,23.9 113.5,28.9 115.3,18.4 107.7,11 118.2,9.5 "/>
<polygon points="158.8,0 163.5,9.5 174,11 166.4,18.4 168.2,28.9 158.8,23.9 149.4,28.9 151.2,18.4 143.6,11 154.1,9.5 "/>
</svg>
